HIERARCHY
ROOT Hip
{
	OFFSET 0 1.131 0.0052
	CHANNELS 6 Xposition Yposition Zposition Xrotation Yrotation Zrotation
	JOINT Abdomen
	{
		OFFSET 0 -0.047353 -0.05
		CHANNELS 3 Xrotation Zrotation Yrotation
		JOINT Chest
		{
			OFFSET 0 0.132153 0.007439
			CHANNELS 3 Xrotation Zrotation Yrotation
			JOINT Neck
			{
				OFFSET 0 0.3078 0.006161
				CHANNELS 3 Xrotation Zrotation Yrotation
				JOINT Head_comp
				{
					OFFSET 0 0.0884 0.013
					CHANNELS 3 Xrotation Yrotation Zrotation
					End Site
					{
						OFFSET -0 0.156 0.0624
					}
				}
			}
			JOINT Left_Collar
			{
				OFFSET 0.02282 0.250342 0.017193
				CHANNELS 2 Yrotation Zrotation
				JOINT Left_Shoulder
				{
					OFFSET 0.15421 0 0
					CHANNELS 3 Xrotation Yrotation Zrotation
					JOINT Left_Forearm
					{
						OFFSET 0.265212 0 0
						CHANNELS 2 Yrotation Xrotation
						JOINT Left_Hand
						{
							OFFSET 0.27571 0 0
							CHANNELS 2 Zrotation Yrotation
							JOINT L1ProxPhalanx
							{
								OFFSET 0.014142 0.001733 0.014142
								CHANNELS 3 Yrotation Zrotation Xrotation
								JOINT L1MidPhalanx
								{
									OFFSET 0.04 0 0
									CHANNELS 1 Zrotation
									JOINT L1DistPhalanx
									{
										OFFSET 0.035 0 0
										CHANNELS 1 Zrotation
										End Site
										{
											OFFSET 0.029 -0 -0
										}
									}
								}
							}
							JOINT L2ProxPhalanx
							{
								OFFSET 0.0821037 0.001578 0.0219996
								CHANNELS 2 Yrotation Zrotation
								JOINT L2MidPhalanx
								{
									OFFSET 0.04 0 0
									CHANNELS 1 Zrotation
									JOINT L2DistPhalanx
									{
										OFFSET 0.028 0 0
										CHANNELS 1 Zrotation
										End Site
										{
											OFFSET 0.02 -0 -0
										}
									}
								}
							}
							JOINT L3ProxPhalanx
							{
								OFFSET 0.083 0 0
								CHANNELS 2 Yrotation Zrotation
								JOINT L3MidPhalanx
								{
									OFFSET 0.053 0 0
									CHANNELS 1 Zrotation
									JOINT L3DistPhalanx
									{
										OFFSET 0.03 0 0
										CHANNELS 1 Zrotation
										End Site
										{
											OFFSET 0.023 -0 -0
										}
									}
								}
							}
							JOINT L4ProxPhalanx
							{
								OFFSET 0.077274 -0.000761 -0.0207055
								CHANNELS 2 Yrotation Zrotation
								JOINT L4MidPhalanx
								{
									OFFSET 0.05 0 0
									CHANNELS 1 Zrotation
									JOINT L4DistPhalanx
									{
										OFFSET 0.03 0 0
										CHANNELS 1 Zrotation
										End Site
										{
											OFFSET 0.023 -0 -0
										}
									}
								}
							}
							JOINT L5ProxPhalanx
							{
								OFFSET 0.0675499 -0.001644 -0.039
								CHANNELS 2 Yrotation Zrotation
								JOINT L5MidPhalanx
								{
									OFFSET 0.04 0 0
									CHANNELS 1 Zrotation
									JOINT L5DistPhalanx
									{
										OFFSET 0.021 0 0
										CHANNELS 1 Zrotation
										End Site
										{
											OFFSET 0.022 -0 -0
										}
									}
								}
							}
						}
					}
				}
			}
			JOINT Right_Collar
			{
				OFFSET -0.02282 0.250342 0.017193
				CHANNELS 2 Yrotation Zrotation
				JOINT Right_Shoulder
				{
					OFFSET -0.15421 0 0
					CHANNELS 3 Xrotation Yrotation Zrotation
					JOINT Right_Forearm
					{
						OFFSET -0.265212 0 0
						CHANNELS 2 Yrotation Xrotation
						JOINT Right_Hand
						{
							OFFSET -0.27571 3e-006 0
							CHANNELS 2 Zrotation Yrotation
							JOINT R1ProxPhalanx
							{
								OFFSET -0.014142 0.001733 0.014142
								CHANNELS 3 Yrotation Zrotation Xrotation
								JOINT R1MidPhalanx
								{
									OFFSET -0.04 0 0
									CHANNELS 1 Zrotation
									JOINT R1DistPhalanx
									{
										OFFSET -0.035 0 0
										CHANNELS 1 Zrotation
										End Site
										{
											OFFSET -0.029 -0 -0
										}
									}
								}
							}
							JOINT R2ProxPhalanx
							{
								OFFSET -0.0821037 0.001578 0.0219996
								CHANNELS 2 Yrotation Zrotation
								JOINT R2MidPhalanx
								{
									OFFSET -0.04 0 0
									CHANNELS 1 Zrotation
									JOINT R2DistPhalanx
									{
										OFFSET -0.028 0 0
										CHANNELS 1 Zrotation
										End Site
										{
											OFFSET -0.02 -0 -0
										}
									}
								}
							}
							JOINT R3ProxPhalanx
							{
								OFFSET -0.083 0 0
								CHANNELS 2 Yrotation Zrotation
								JOINT R3MidPhalanx
								{
									OFFSET -0.053 0 0
									CHANNELS 1 Zrotation
									JOINT R3DistPhalanx
									{
										OFFSET -0.03 0 0
										CHANNELS 1 Zrotation
										End Site
										{
											OFFSET -0.023 -0 -0
										}
									}
								}
							}
							JOINT R4ProxPhalanx
							{
								OFFSET -0.077274 -0.000761 -0.0207055
								CHANNELS 2 Yrotation Zrotation
								JOINT R4MidPhalanx
								{
									OFFSET -0.05 0 0
									CHANNELS 1 Zrotation
									JOINT R4DistPhalanx
									{
										OFFSET -0.03 0 0
										CHANNELS 1 Zrotation
										End Site
										{
											OFFSET -0.023 -0 -0
										}
									}
								}
							}
							JOINT R5ProxPhalanx
							{
								OFFSET -0.0675499 -0.001644 -0.039
								CHANNELS 2 Yrotation Zrotation
								JOINT R5MidPhalanx
								{
									OFFSET -0.04 0 0
									CHANNELS 1 Zrotation
									JOINT R5DistPhalanx
									{
										OFFSET -0.021 0 0
										CHANNELS 1 Zrotation
										End Site
										{
											OFFSET -0.022 -0 -0
										}
									}
								}
							}
						}
					}
				}
			}
		}
	}
	JOINT Left_Thigh
	{
		OFFSET 0.1118 -0.1612 -0.0442
		CHANNELS 3 Xrotation Zrotation Yrotation
		JOINT Left_Shin
		{
			OFFSET 0 -0.477856 0
			CHANNELS 1 Xrotation
			JOINT Left_Foot
			{
				OFFSET 0 -0.431952 0
				CHANNELS 2 Xrotation Zrotation
				JOINT Left_Toe
				{
					OFFSET 0 -0.0442 0.119
					CHANNELS 1 Xrotation
					End Site
					{
						OFFSET -0 -0 0.07
					}
				}
			}
		}
	}
	JOINT Right_Thigh
	{
		OFFSET -0.1118 -0.1612 -0.0442
		CHANNELS 3 Xrotation Zrotation Yrotation
		JOINT Right_Shin
		{
			OFFSET 0 -0.477856 0
			CHANNELS 1 Xrotation
			JOINT Right_Foot
			{
				OFFSET 0 -0.431952 0
				CHANNELS 2 Xrotation Zrotation
				JOINT Right_Toe
				{
					OFFSET 0 -0.0442 0.119
					CHANNELS 1 Xrotation
					End Site
					{
						OFFSET -0 -0 0.07
					}
				}
			}
		}
	}
}
MOTION
Frames: 12
Frame Time: 0.009975
-0.10379 -0.0602101 0.0572396 -6.88098e-013 1.02439e-007 -5.10849e-006 0 0 0 0 0 0 0 0 0 0 0 0 0 0 -0 0 -0 0 0 0 0 -40.5316 -43.5896 103.283 -7.10789 -4.81548 2.69559 -7.40342 -2.98992 -6.72733 5.89092 0.508958 -5.4973 -5.3917 11.1257 1.19015 -12.1062 -9.35422 19.4153 3.33565 -41.2194 -1.46018 0 0 -0 0 -0 0 0 0 0 37.9386 28.008 73.698 26.2405 28.4472 13.118 18.2167 29.0248 19.6359 0 22.4358 32.6146 28.1246 -8.63175 30.7051 32.2053 23.7634 -7.83088 26.7354 35.1526 30.0193 1.13737 -0.50441 -0.0100143 0.0240216 -1.16135 0.504515 0 1.14877 -0.504409 -0.0101147 1.70755e-006 -1.14873 0.504515 0 
-0.10379 -0.0602101 0.0572396 -6.88098e-013 1.02439e-007 -5.10849e-006 0 0 0 0 0 0 0 0 0 0 0 0 0 0 -0 0 -0 0 0 0 0 -40.5316 -43.5896 103.283 -7.10789 -4.81548 2.69559 -7.40342 -2.98992 -6.72733 5.89092 0.508958 -5.4973 -5.3917 11.1257 1.19015 -12.1062 -9.35422 19.4153 3.33565 -41.2194 -1.46018 0 0 -0 0 -0 0 0 0 0 37.9386 28.008 73.698 26.2405 28.4472 13.118 18.2167 29.0248 19.6359 0 22.4358 32.6146 28.1246 -8.63175 30.7051 32.2053 23.7634 -7.83088 26.7354 35.1526 30.0193 1.13737 -0.50441 -0.0100143 0.0240216 -1.16135 0.504515 0 1.14877 -0.504409 -0.0101147 1.70755e-006 -1.14873 0.504515 0 
-0.101405 -0.0601772 0.0540726 2.86398e-013 8.46562e-008 -5.08341e-006 0 -0 0 0 -0 0 0 -0 0 -0.710611 0.291149 -9.07291e-006 9.40188 -19.7997 1.28044 -11.4162 -27.4148 -115.23 -4.20612 12.2684 -4.02607 -40.6385 -43.5109 103.135 -7.24735 -4.8914 2.67736 -7.51636 -3.17497 -6.76869 5.86226 0.346656 -5.66981 -5.45475 11.0789 1.02468 -12.2457 -9.39745 19.3495 3.19963 -41.1833 -1.55288 -9.40188 19.7997 1.28044 11.4162 27.4148 115.23 -4.20612 -12.2684 4.02607 40.6385 43.5109 103.135 7.24735 4.8914 -2.67736 7.51636 3.17497 6.76869 -5.86226 -0.346656 5.66981 5.45475 -11.0789 -1.02468 12.2457 9.39745 -19.3495 -3.19963 41.1833 1.55288 0.937964 -0.654618 -0.0107442 0.0239015 -0.961804 0.654711 0 0.949311 -0.654616 -0.0108742 2.81749e-006 -0.949252 0.654711 0 
-0.10135 -0.060173 0.0538337 2.87857e-013 8.50816e-008 -5.10895e-006 0 -0 0 0 -0 0 0 -0 0 -0.713365 0.291269 -7.22889e-011 9.44865 -19.8989 1.43567 -11.5226 -27.5061 -115.741 -4.21955 12.3301 -4.04623 -40.5316 -43.5896 103.283 -7.10789 -4.81548 2.69559 -7.40342 -2.98992 -6.72733 5.89092 0.508958 -5.4973 -5.3917 11.1257 1.19015 -12.1062 -9.35422 19.4153 3.33565 -41.2194 -1.46018 -9.44865 19.8989 1.43567 11.5226 27.5061 115.741 -4.21955 -12.3301 4.04623 40.5316 43.5896 103.283 7.10789 4.81548 -2.69559 7.40342 2.98992 6.72733 -5.89092 -0.508958 5.4973 5.3917 -11.1257 -1.19015 12.1062 9.35422 -19.4153 -3.33565 41.2194 1.46018 0.922862 -0.658115 -0.010601 0.0240216 -0.946823 0.658205 0 0.934268 -0.658113 -0.010732 2.83165e-006 -0.934209 0.658205 0 
-0.10135 -0.0601729 0.0538272 -9.94881e-013 8.33013e-008 -5.10898e-006 0 -0 0 0 -0 0 0 -0 0 -0.713351 0.291255 -2.863e-015 9.44865 -19.8989 1.43656 -11.5231 -27.5092 -115.741 -4.21955 12.3301 -4.04623 -40.5316 -43.5896 103.283 -7.10789 -4.81548 2.69559 -7.40342 -2.98992 -6.72733 5.89092 0.508958 -5.4973 -5.3917 11.1257 1.19015 -12.1062 -9.35422 19.4153 3.33565 -41.2194 -1.46018 -9.44865 19.8989 1.43656 11.5231 27.5092 115.741 -4.21955 -12.3301 4.04623 40.5316 43.5896 103.283 7.10789 4.81548 -2.69559 7.40342 2.98992 6.72733 -5.89092 -0.508958 5.4973 5.3917 -11.1257 -1.19015 12.1062 9.35422 -19.4153 -3.33565 41.2194 1.46018 0.922453 -0.658118 -0.0105964 0.0240216 -0.946414 0.658208 0 0.933857 -0.658116 -0.0107273 2.41484e-006 -0.933798 0.658208 0 
-0.10135 -0.0601729 0.0538272 -1.74199e-013 8.32779e-008 -5.10898e-006 0 -0 0 0 -0 0 0 -0 0 -0.713351 0.291255 -0 9.44865 -19.8989 1.43656 -11.5231 -27.5092 -115.741 -4.21955 12.3301 -4.04623 -40.5316 -43.5896 103.283 -7.10789 -4.81548 2.69559 -7.40342 -2.98992 -6.72733 5.89092 0.508958 -5.4973 -5.3917 11.1257 1.19015 -12.1062 -9.35422 19.4153 3.33565 -41.2194 -1.46018 -9.44865 19.8989 1.43656 11.5231 27.5092 115.741 -4.21955 -12.3301 4.04623 40.5316 43.5896 103.283 7.10789 4.81548 -2.69559 7.40342 2.98992 6.72733 -5.89092 -0.508958 5.4973 5.3917 -11.1257 -1.19015 12.1062 9.35422 -19.4153 -3.33565 41.2194 1.46018 0.922448 -0.658118 -0.0105963 0.0240216 -0.946411 0.658208 0 0.933854 -0.658116 -0.0107273 2.83165e-006 -0.933793 0.658208 0 
-0.10135 -0.0601729 0.0538272 5.85953e-013 8.32777e-008 -5.10898e-006 0 -0 0 0 -0 0 0 -0 0 -0.713351 0.291255 -0 9.44865 -19.8989 1.43656 -11.5231 -27.5092 -115.741 -4.21955 12.3301 -4.04623 -40.5316 -43.5896 103.283 -7.10789 -4.81548 2.69559 -7.40342 -2.98992 -6.72733 5.89092 0.508958 -5.4973 -5.3917 11.1257 1.19015 -12.1062 -9.35422 19.4153 3.33565 -41.2194 -1.46018 -9.44865 19.8989 1.43656 11.5231 27.5092 115.741 -4.21955 -12.3301 4.04623 40.5316 43.5896 103.283 7.10789 4.81548 -2.69559 7.40342 2.98992 6.72733 -5.89092 -0.508958 5.4973 5.3917 -11.1257 -1.19015 12.1062 9.35422 -19.4153 -3.33565 41.2194 1.46018 0.922448 -0.658118 -0.0105963 0.0240216 -0.946409 0.658208 0 0.933854 -0.658116 -0.0107273 4.24747e-008 -0.933793 0.658208 0 
-0.10135 -0.0601729 0.0538272 -7.06445e-013 8.32777e-008 -5.10898e-006 0 -0 0 0 -0 0 0 -0 0 -0.713351 0.291255 -3.88256e-019 9.44865 -19.8989 1.43656 -11.5231 -27.5092 -115.741 -4.21955 12.3301 -4.04623 -40.5316 -43.5896 103.283 -7.10789 -4.81548 2.69559 -7.40342 -2.98992 -6.72733 5.89092 0.508958 -5.4973 -5.3917 11.1257 1.19015 -12.1062 -9.35422 19.4153 3.33565 -41.2194 -1.46018 -9.44865 19.8989 1.43656 11.5231 27.5092 115.741 -4.21955 -12.3301 4.04623 40.5316 43.5896 103.283 7.10789 4.81548 -2.69559 7.40342 2.98992 6.72733 -5.89092 -0.508958 5.4973 5.3917 -11.1257 -1.19015 12.1062 9.35422 -19.4153 -3.33565 41.2194 1.46018 0.922448 -0.658118 -0.0105963 0.0240216 -0.946409 0.658208 0 0.933854 -0.658116 -0.0107273 0 -0.933792 0.658208 0 
-0.10135 -0.0601729 0.0538272 8.38231e-014 8.32777e-008 -5.10898e-006 0 -0 0 0 -0 0 0 -0 0 -0.713351 0.291255 -0 9.44865 -19.8989 1.43656 -11.5231 -27.5092 -115.741 -4.21955 12.3301 -4.04623 -40.5316 -43.5896 103.283 -7.10789 -4.81548 2.69559 -7.40342 -2.98992 -6.72733 5.89092 0.508958 -5.4973 -5.3917 11.1257 1.19015 -12.1062 -9.35422 19.4153 3.33565 -41.2194 -1.46018 -9.44865 19.8989 1.43656 11.5231 27.5092 115.741 -4.21955 -12.3301 4.04623 40.5316 43.5896 103.283 7.10789 4.81548 -2.69559 7.40342 2.98992 6.72733 -5.89092 -0.508958 5.4973 5.3917 -11.1257 -1.19015 12.1062 9.35422 -19.4153 -3.33565 41.2194 1.46018 0.922448 -0.658118 -0.0105963 0.0240216 -0.946409 0.658208 0 0.933854 -0.658116 -0.0107273 1.6734e-006 -0.933792 0.658208 0 
-0.10135 -0.0601729 0.0538272 6.85942e-013 8.32777e-008 -5.10898e-006 0 -0 0 0 -0 0 0 -0 0 -0.713351 0.291255 -3.88256e-019 9.44865 -19.8989 1.43656 -11.5231 -27.5092 -115.741 -4.21955 12.3301 -4.04623 -40.5316 -43.5896 103.283 -7.10789 -4.81548 2.69559 -7.40342 -2.98992 -6.72733 5.89092 0.508958 -5.4973 -5.3917 11.1257 1.19015 -12.1062 -9.35422 19.4153 3.33565 -41.2194 -1.46018 -9.44865 19.8989 1.43656 11.5231 27.5092 115.741 -4.21955 -12.3301 4.04623 40.5316 43.5896 103.283 7.10789 4.81548 -2.69559 7.40342 2.98992 6.72733 -5.89092 -0.508958 5.4973 5.3917 -11.1257 -1.19015 12.1062 9.35422 -19.4153 -3.33565 41.2194 1.46018 0.922448 -0.658118 -0.0105963 0.0240216 -0.946409 0.658208 0 0.933854 -0.658116 -0.0107273 3.84198e-008 -0.933794 0.658208 0 
-0.10135 -0.0601729 0.0538272 6.25611e-013 8.32777e-008 -5.10898e-006 0 -0 0 0 -0 0 0 -0 0 -0.713351 0.291255 -3.88256e-019 9.44865 -19.8989 1.43656 -11.5231 -27.5092 -115.741 -4.21955 12.3301 -4.04623 -40.5316 -43.5896 103.283 -7.10789 -4.81548 2.69559 -7.40342 -2.98992 -6.72733 5.89092 0.508958 -5.4973 -5.3917 11.1257 1.19015 -12.1062 -9.35422 19.4153 3.33565 -41.2194 -1.46018 -9.44865 19.8989 1.43656 11.5231 27.5092 115.741 -4.21955 -12.3301 4.04623 40.5316 43.5896 103.283 7.10789 4.81548 -2.69559 7.40342 2.98992 6.72733 -5.89092 -0.508958 5.4973 5.3917 -11.1257 -1.19015 12.1062 9.35422 -19.4153 -3.33565 41.2194 1.46018 0.922448 -0.658118 -0.0105963 0.0240216 -0.946409 0.658208 0 0.933854 -0.658116 -0.0107273 1.66486e-006 -0.933792 0.658208 0 
-0.10135 -0.0601729 0.0538272 -7.18174e-013 8.32777e-008 -5.10898e-006 0 -0 0 0 -0 0 0 -0 0 -0.713351 0.291255 -0 9.44865 -19.8989 1.43656 -11.5231 -27.5092 -115.741 -4.21955 12.3301 -4.04623 -40.5316 -43.5896 103.283 -7.10789 -4.81548 2.69559 -7.40342 -2.98992 -6.72733 5.89092 0.508958 -5.4973 -5.3917 11.1257 1.19015 -12.1062 -9.35422 19.4153 3.33565 -41.2194 -1.46018 -9.44865 19.8989 1.43656 11.5231 27.5092 115.741 -4.21955 -12.3301 4.04623 40.5316 43.5896 103.283 7.10789 4.81548 -2.69559 7.40342 2.98992 6.72733 -5.89092 -0.508958 5.4973 5.3917 -11.1257 -1.19015 12.1062 9.35422 -19.4153 -3.33565 41.2194 1.46018 0.922448 -0.658118 -0.0105963 0.0240216 -0.946409 0.658208 0 0.933854 -0.658116 -0.0107273 4.69576e-008 -0.933794 0.658208 0 
